<svg xmlns="http://www.w3.org/2000/svg" viewBox="0 0 147 124"><defs><style>.cls-1,.cls-3{fill:none;stroke-miterlimit:10;}.cls-1{stroke:#c49a6c;stroke-width:3px;}.cls-2{fill:#c49a6c;}.cls-3{stroke:#fff;}</style></defs><g id="Layer_2" data-name="Layer 2"><g id="Layer_1-2" data-name="Layer 1"><rect class="cls-1" x="1.5" y="1.5" width="144" height="121"/><path class="cls-2" d="M120.94,24.32c-3.07,3.57-6.34,6.87-9.68,10.09s-6.77,6.35-10.27,9.38-7.11,5.91-10.83,8.65S82.67,57.89,79,60.68L67.91,69l-11.13,8.3c-7.46,5.47-14.87,11-22.39,16.42L34,93.29C40.93,87.13,47.94,81.1,54.9,75l10.51-9.07,10.57-9c3.52-3,7-6.08,10.46-9.13s7.08-5.94,10.8-8.7,7.51-5.42,11.37-8,7.81-5,12-7.27Z"/><path class="cls-2" d="M40.4,82.4a7,7,0,0,1,6.72,3.82c1.63,3.65-1.52,8.47-4.62,10.4-5,3.09-13.3.94-20.15-5.93a14.87,14.87,0,0,0,8.5-1.14C35.8,87.16,36.48,82.82,40.4,82.4Z"/><path class="cls-3" d="M40.38,81.49a12.11,12.11,0,0,1,5.55,2.18,6.07,6.07,0,0,1,2.66,5"/></g></g></svg>